# xmcd
#
# Track frame offsets:
#  150
#  12125
#  24762
#  37125
#  49575
#  63050
#  77025
#  89650
#  105425
#  116600
#  132825
#  143250
#  154765
#  169612
#  182515
#  192512
#
# Disc length: 2764 seconds
#
# Revision: 3
# Processed by: cddbd v1.5.1PL0 Copyright (c) Steve Scherf et al.
# Submitted via: Collectorz.com_Music_Collector 6.9
#
DISCID=be0aca10
DTITLE=Eddie Boyd - Five Long Years
DYEAR=1994
DGENRE=
TTITLE0=Five Long Years
TTITLE1=Hello Stranger
TTITLE2=Where You Belong
TTITLE3=I'm Coming Home
TTITLE4=My Idea
TTITLE5=The Big Question
TTITLE6=Come on Home
TTITLE7=Blue Monday Blues
TTITLE8=Eddie's Blues (Eddie South Blues)
TTITLE9=All the Way
TTITLE10=Twenty-Four Hours
TTITLE11=Rock the Rock
TTITLE12=Five Long Years [Alternate Take]
TTITLE13=The Big Question [Alternate Take]
TTITLE14=Rosa Lee Swing
TTITLE15=Hound Dog
EXTD=
EXTT0=
EXTT1=
EXTT2=
EXTT3=
EXTT4=
EXTT5=
EXTT6=
EXTT7=
EXTT8=
EXTT9=
EXTT10=
EXTT11=
EXTT12=
EXTT13=
EXTT14=
EXTT15=
PLAYORDER=
